<svg id="visual" viewBox="0 0 100 50" width="100" height="50" xmlns="http://www.w3.org/2000/svg" xmlns:xlink="http://www.w3.org/1999/xlink" version="1.1"><path d="M0 20L14 20L14 24L29 24L29 31L43 31L43 27L57 27L57 25L71 25L71 26L86 26L86 29L100 29L100 25L100 51L100 51L86 51L86 51L71 51L71 51L57 51L57 51L43 51L43 51L29 51L29 51L14 51L14 51L0 51Z" fill="#cb98ad"></path><path d="M0 30L14 30L14 37L29 37L29 36L43 36L43 36L57 36L57 36L71 36L71 28L86 28L86 30L100 30L100 36L100 51L100 51L86 51L86 51L71 51L71 51L57 51L57 51L43 51L43 51L29 51L29 51L14 51L14 51L0 51Z" fill="#9d7083"></path><path d="M0 39L14 39L14 44L29 44L29 41L43 41L43 39L57 39L57 39L71 39L71 39L86 39L86 41L100 41L100 41L100 51L100 51L86 51L86 51L71 51L71 51L57 51L57 51L43 51L43 51L29 51L29 51L14 51L14 51L0 51Z" fill="#724a5b"></path></svg>