<svg id="visual" viewBox="0 0 100 50" width="100" height="50" xmlns="http://www.w3.org/2000/svg" xmlns:xlink="http://www.w3.org/1999/xlink" version="1.1"><g stroke-width="1" stroke-linejoin="bevel"><path d="M56.7 29L54.3 39L57.4 33Z" fill="#a78aa5" stroke="#a78aa5"></path><path d="M38.1 50L46.4 49L54.3 39Z" fill="#a791ae" stroke="#a791ae"></path><path d="M46.4 49L49.3 50L54.3 39Z" fill="#a5abca" stroke="#a5abca"></path><path d="M54.3 39L69.8 38L57.4 33Z" fill="#a2798a" stroke="#a2798a"></path><path d="M49.3 50L51.6 50L54.3 39Z" fill="#a797b6" stroke="#a797b6"></path><path d="M28.7 25L38.1 50L54.3 39Z" fill="#a2798a" stroke="#a2798a"></path><path d="M46.4 49L42.2 66L49.3 50Z" fill="#a6a4c4" stroke="#a6a4c4"></path><path d="M56.7 29L30.7 23L54.3 39Z" fill="#a5b1d0" stroke="#a5b1d0"></path><path d="M63.4 50L69.8 38L54.3 39Z" fill="#a78aa5" stroke="#a78aa5"></path><path d="M57.4 33L69.8 38L56.7 29Z" fill="#a5abca" stroke="#a5abca"></path><path d="M30.7 23L28.7 25L54.3 39Z" fill="#a791ae" stroke="#a791ae"></path><path d="M51.6 50L63.4 50L54.3 39Z" fill="#a5abca" stroke="#a5abca"></path><path d="M62.6 7L50.4 10L56.7 29Z" fill="#a791ae" stroke="#a791ae"></path><path d="M56.7 29L50.4 10L30.7 23Z" fill="#a5b1d0" stroke="#a5b1d0"></path><path d="M42.2 66L64.8 55L51.6 50Z" fill="#a5abca" stroke="#a5abca"></path><path d="M51.6 50L64.8 55L63.4 50Z" fill="#a6849c" stroke="#a6849c"></path><path d="M63.4 50L74.9 50L69.8 38Z" fill="#a2798a" stroke="#a2798a"></path><path d="M42.2 66L51.6 50L49.3 50Z" fill="#a5b8d5" stroke="#a5b8d5"></path><path d="M69.8 38L62.6 7L56.7 29Z" fill="#a78aa5" stroke="#a78aa5"></path><path d="M40.6 0L32.3 9L50.4 10Z" fill="#a797b6" stroke="#a797b6"></path><path d="M50.4 10L32.3 9L30.7 23Z" fill="#a5abca" stroke="#a5abca"></path><path d="M30.7 23L16.3 21L28.7 25Z" fill="#a6849c" stroke="#a6849c"></path><path d="M64.8 55L74.9 50L63.4 50Z" fill="#a47f93" stroke="#a47f93"></path><path d="M71.4 0L63.9 0L62.6 7Z" fill="#a79ebd" stroke="#a79ebd"></path><path d="M58.8 -2L46.3 0L50.4 10Z" fill="#a2798a" stroke="#a2798a"></path><path d="M22.2 53L34.3 62L38.1 50Z" fill="#a47f93" stroke="#a47f93"></path><path d="M38.1 50L42.2 66L46.4 49Z" fill="#a5abca" stroke="#a5abca"></path><path d="M46.3 0L40.6 0L50.4 10Z" fill="#a5b1d0" stroke="#a5b1d0"></path><path d="M16.3 21L22.2 53L28.7 25Z" fill="#a47f93" stroke="#a47f93"></path><path d="M28.7 25L22.2 53L38.1 50Z" fill="#a2798a" stroke="#a2798a"></path><path d="M34.3 62L42.2 66L38.1 50Z" fill="#a6a4c4" stroke="#a6a4c4"></path><path d="M40.6 0L37.7 0L32.3 9Z" fill="#a6a4c4" stroke="#a6a4c4"></path><path d="M11.1 2L16.3 21L32.3 9Z" fill="#a78aa5" stroke="#a78aa5"></path><path d="M32.3 9L16.3 21L30.7 23Z" fill="#a797b6" stroke="#a797b6"></path><path d="M71.4 0L62.6 7L86.6 0Z" fill="#a797b6" stroke="#a797b6"></path><path d="M62.6 7L58.8 -2L50.4 10Z" fill="#a2798a" stroke="#a2798a"></path><path d="M63.9 0L58.8 -2L62.6 7Z" fill="#a2798a" stroke="#a2798a"></path><path d="M46.3 0L53.9 -10L40.6 0Z" fill="#a6849c" stroke="#a6849c"></path><path d="M40.6 0L25.1 -19L37.7 0Z" fill="#a5abca" stroke="#a5abca"></path><path d="M22.2 53L24.2 60L34.3 62Z" fill="#a797b6" stroke="#a797b6"></path><path d="M34.3 62L20.6 65L42.2 66Z" fill="#a6849c" stroke="#a6849c"></path><path d="M22.4 -4L29.2 0L23.2 -7Z" fill="#a5b1d0" stroke="#a5b1d0"></path><path d="M37.7 0L29.2 0L32.3 9Z" fill="#a47f93" stroke="#a47f93"></path><path d="M89.7 50L86.6 45L74.9 50Z" fill="#a791ae" stroke="#a791ae"></path><path d="M74.9 50L86.6 45L69.8 38Z" fill="#a6849c" stroke="#a6849c"></path><path d="M89.7 50L74.9 50L87.9 57Z" fill="#a6849c" stroke="#a6849c"></path><path d="M63.9 0L53.9 -10L58.8 -2Z" fill="#a791ae" stroke="#a791ae"></path><path d="M86.6 0L62.6 7L69.8 38Z" fill="#a2798a" stroke="#a2798a"></path><path d="M71.4 0L53.9 -10L63.9 0Z" fill="#a5b1d0" stroke="#a5b1d0"></path><path d="M58.8 -2L53.9 -10L46.3 0Z" fill="#a5abca" stroke="#a5abca"></path><path d="M24.2 60L20.6 65L34.3 62Z" fill="#a6849c" stroke="#a6849c"></path><path d="M14.1 64L20.6 65L24.2 60Z" fill="#a5b1d0" stroke="#a5b1d0"></path><path d="M14.1 64L24.2 60L22.2 53Z" fill="#a5b1d0" stroke="#a5b1d0"></path><path d="M87.9 57L74.9 50L64.8 55Z" fill="#a47f93" stroke="#a47f93"></path><path d="M86.6 45L97.9 29L69.8 38Z" fill="#a2798a" stroke="#a2798a"></path><path d="M23.2 -7L29.2 0L37.7 0Z" fill="#a6849c" stroke="#a6849c"></path><path d="M29.2 0L11.1 2L32.3 9Z" fill="#a5abca" stroke="#a5abca"></path><path d="M90.7 67L87.9 57L64.8 55Z" fill="#a79ebd" stroke="#a79ebd"></path><path d="M0 54L14.1 64L22.2 53Z" fill="#a6849c" stroke="#a6849c"></path><path d="M25.1 -19L23.2 -7L37.7 0Z" fill="#a6849c" stroke="#a6849c"></path><path d="M22.4 -4L11.1 2L29.2 0Z" fill="#a791ae" stroke="#a791ae"></path><path d="M16.3 21L0 50L22.2 53Z" fill="#a791ae" stroke="#a791ae"></path><path d="M23.2 -7L11.1 2L22.4 -4Z" fill="#a5b1d0" stroke="#a5b1d0"></path><path d="M100 26L97.9 29L100 41Z" fill="#a6849c" stroke="#a6849c"></path><path d="M100 41L97.9 29L86.6 45Z" fill="#a47f93" stroke="#a47f93"></path><path d="M97.9 29L86.6 0L69.8 38Z" fill="#a78aa5" stroke="#a78aa5"></path><path d="M71.4 0L86.6 0L53.9 -10Z" fill="#a5abca" stroke="#a5abca"></path><path d="M100 26L86.8 0L86.6 0Z" fill="#a5b8d5" stroke="#a5b8d5"></path><path d="M86.6 0L86.8 0L53.9 -10Z" fill="#a5abca" stroke="#a5abca"></path><path d="M100 41L86.6 45L89.7 50Z" fill="#a791ae" stroke="#a791ae"></path><path d="M97.9 29L100 26L86.6 0Z" fill="#a6849c" stroke="#a6849c"></path><path d="M98.8 50L100 41L89.7 50Z" fill="#a791ae" stroke="#a791ae"></path><path d="M-1.8 50L0 50L-17.9 21Z" fill="#a78aa5" stroke="#a78aa5"></path><path d="M100 53L98.8 50L89.7 50Z" fill="#a47f93" stroke="#a47f93"></path><path d="M0 50L0 54L22.2 53Z" fill="#a5b1d0" stroke="#a5b1d0"></path><path d="M100 53L100 50L98.8 50Z" fill="#a5b1d0" stroke="#a5b1d0"></path><path d="M98.8 50L100 50L100 41Z" fill="#a791ae" stroke="#a791ae"></path><path d="M-17.9 21L0 50L16.3 21Z" fill="#a5b8d5" stroke="#a5b8d5"></path><path d="M0 50L-1.8 50L0 54Z" fill="#a791ae" stroke="#a791ae"></path><path d="M42.2 66L90.7 67L64.8 55Z" fill="#a791ae" stroke="#a791ae"></path><path d="M87.9 57L100 53L89.7 50Z" fill="#a6a4c4" stroke="#a6a4c4"></path><path d="M100 58L100 53L87.9 57Z" fill="#a5b1d0" stroke="#a5b1d0"></path><path d="M-1.8 50L0 58L0 54Z" fill="#a79ebd" stroke="#a79ebd"></path><path d="M0 54L0 58L14.1 64Z" fill="#a5abca" stroke="#a5abca"></path><path d="M0 0L0 6L11.1 2Z" fill="#a79ebd" stroke="#a79ebd"></path><path d="M11.1 2L0 6L16.3 21Z" fill="#a5b8d5" stroke="#a5b8d5"></path><path d="M90.7 67L100 58L87.9 57Z" fill="#a5abca" stroke="#a5abca"></path><path d="M53.9 -10L25.1 -19L40.6 0Z" fill="#a47f93" stroke="#a47f93"></path><path d="M23.2 -7L0 0L11.1 2Z" fill="#a5abca" stroke="#a5abca"></path><path d="M0 -30L25.1 -19L53.9 -10Z" fill="#a5abca" stroke="#a5abca"></path><path d="M0 -30L0 0L23.2 -7Z" fill="#a5abca" stroke="#a5abca"></path><path d="M0 6L-17.9 21L16.3 21Z" fill="#a5abca" stroke="#a5abca"></path><path d="M100 26L100 0L86.8 0Z" fill="#a5abca" stroke="#a5abca"></path><path d="M86.8 0L100 0L53.9 -10Z" fill="#a6849c" stroke="#a6849c"></path><path d="M100 41L111.8 10L100 26Z" fill="#a5abca" stroke="#a5abca"></path><path d="M100 26L111.8 10L100 0Z" fill="#a79ebd" stroke="#a79ebd"></path><path d="M120.9 79L111.8 10L100 41Z" fill="#a47f93" stroke="#a47f93"></path><path d="M120.9 79L100 41L100 50Z" fill="#a6849c" stroke="#a6849c"></path><path d="M120.9 79L100 50L100 53Z" fill="#a5b8d5" stroke="#a5b8d5"></path><path d="M-19.9 0L-17.9 21L0 6Z" fill="#a6849c" stroke="#a6849c"></path><path d="M-1.8 50L-17.9 21L0 58Z" fill="#a2798a" stroke="#a2798a"></path><path d="M0 -30L-19.9 0L0 0Z" fill="#a78aa5" stroke="#a78aa5"></path><path d="M0 0L-19.9 0L0 6Z" fill="#a797b6" stroke="#a797b6"></path><path d="M100 0L0 -30L53.9 -10Z" fill="#a5b8d5" stroke="#a5b8d5"></path><path d="M25.1 -19L0 -30L23.2 -7Z" fill="#a79ebd" stroke="#a79ebd"></path><path d="M90.7 67L120.9 79L100 58Z" fill="#a797b6" stroke="#a797b6"></path><path d="M100 58L120.9 79L100 53Z" fill="#a47f93" stroke="#a47f93"></path><path d="M42.2 66L120.9 79L90.7 67Z" fill="#a79ebd" stroke="#a79ebd"></path><path d="M20.6 65L120.9 79L42.2 66Z" fill="#a6a4c4" stroke="#a6a4c4"></path></g></svg>