<svg id="visual" viewBox="0 0 900 600" width="900" height="600" xmlns="http://www.w3.org/2000/svg" xmlns:xlink="http://www.w3.org/1999/xlink" version="1.1"><path d="M0 163L82 163L82 115L164 115L164 175L245 175L245 205L327 205L327 127L409 127L409 151L491 151L491 139L573 139L573 91L655 91L655 229L736 229L736 91L818 91L818 223L900 223L900 91L900 0L900 0L818 0L818 0L736 0L736 0L655 0L655 0L573 0L573 0L491 0L491 0L409 0L409 0L327 0L327 0L245 0L245 0L164 0L164 0L82 0L82 0L0 0Z" fill="#cbb5b4"></path><path d="M0 289L82 289L82 331L164 331L164 325L245 325L245 313L327 313L327 277L409 277L409 301L491 301L491 259L573 259L573 349L655 349L655 379L736 379L736 343L818 343L818 313L900 313L900 277L900 89L900 221L818 221L818 89L736 89L736 227L655 227L655 89L573 89L573 137L491 137L491 149L409 149L409 125L327 125L327 203L245 203L245 173L164 173L164 113L82 113L82 161L0 161Z" fill="#b69698"></path><path d="M0 325L82 325L82 415L164 415L164 391L245 391L245 397L327 397L327 337L409 337L409 385L491 385L491 355L573 355L573 403L655 403L655 433L736 433L736 379L818 379L818 367L900 367L900 373L900 275L900 311L818 311L818 341L736 341L736 377L655 377L655 347L573 347L573 257L491 257L491 299L409 299L409 275L327 275L327 311L245 311L245 323L164 323L164 329L82 329L82 287L0 287Z" fill="#a0787f"></path><path d="M0 451L82 451L82 469L164 469L164 511L245 511L245 451L327 451L327 463L409 463L409 439L491 439L491 469L573 469L573 463L655 463L655 505L736 505L736 481L818 481L818 493L900 493L900 487L900 371L900 365L818 365L818 377L736 377L736 431L655 431L655 401L573 401L573 353L491 353L491 383L409 383L409 335L327 335L327 395L245 395L245 389L164 389L164 413L82 413L82 323L0 323Z" fill="#895b69"></path><path d="M0 601L82 601L82 601L164 601L164 601L245 601L245 601L327 601L327 601L409 601L409 601L491 601L491 601L573 601L573 601L655 601L655 601L736 601L736 601L818 601L818 601L900 601L900 601L900 485L900 491L818 491L818 479L736 479L736 503L655 503L655 461L573 461L573 467L491 467L491 437L409 437L409 461L327 461L327 449L245 449L245 509L164 509L164 467L82 467L82 449L0 449Z" fill="#723f55"></path></svg>