<svg id="visual" viewBox="0 0 900 600" width="900" height="600" xmlns="http://www.w3.org/2000/svg" xmlns:xlink="http://www.w3.org/1999/xlink" version="1.1"><path d="M0 482L21.5 469.3C43 456.7 86 431.3 128.8 429.5C171.7 427.7 214.3 449.3 257.2 449.8C300 450.3 343 429.7 385.8 417C428.7 404.3 471.3 399.7 514.2 415.7C557 431.7 600 468.3 642.8 481.7C685.7 495 728.3 485 771.2 473.3C814 461.7 857 448.3 878.5 441.7L900 435L900 601L878.5 601C857 601 814 601 771.2 601C728.3 601 685.7 601 642.8 601C600 601 557 601 514.2 601C471.3 601 428.7 601 385.8 601C343 601 300 601 257.2 601C214.3 601 171.7 601 128.8 601C86 601 43 601 21.5 601L0 601Z" fill="#b8cae4" stroke-linecap="round" stroke-linejoin="miter"></path></svg>